<?xml version="1.0" standalone="no"?><!DOCTYPE svg PUBLIC "-//W3C//DTD SVG 1.1//EN" "http://www.w3.org/Graphics/SVG/1.1/DTD/svg11.dtd"><svg t="1571372846554" class="icon" viewBox="0 0 1117 1024" version="1.1" xmlns="http://www.w3.org/2000/svg" p-id="4486" xmlns:xlink="http://www.w3.org/1999/xlink" width="139.625" height="128"><defs><style type="text/css"></style></defs><path d="M492.8 423.8c11.9-12.7 31.8-13.3 44.4-1.4 0.5 0.5 1 0.9 1.4 1.4l411.7 411.7c12.7 12.7 12.7 33.2 0 45.8-12.7 12.7-33.2 12.7-45.8 0L511.8 488.6 119.1 881.3c-12.7 12.7-33.2 12.7-45.8 0-12.7-12.7-12.7-33.2 0-45.8l419.5-411.7z m411.9 183.3L512 214.4 119.3 607.1c-12.7 12.7-33.2 12.7-45.8 0s-12.7-33.2 0-45.8l418.8-418.2c11.9-12.7 31.8-13.3 44.4-1.4 0.5 0.5 1 0.9 1.4 1.4l411.7 411.7c12.7 11.9 13.3 31.8 1.4 44.4-0.5 0.5-0.9 1-1.4 1.4-7.2 13.8-24.2 19.1-38 11.9-2.6-1.5-5.1-3.3-7.1-5.4z" p-id="4487" fill="#dbdbdb"></path></svg>