<?xml version="1.0" standalone="no"?><!DOCTYPE svg PUBLIC "-//W3C//DTD SVG 1.1//EN" "http://www.w3.org/Graphics/SVG/1.1/DTD/svg11.dtd"><svg t="1571372761265" class="icon" viewBox="0 0 1024 1024" version="1.1" xmlns="http://www.w3.org/2000/svg" p-id="3502" xmlns:xlink="http://www.w3.org/1999/xlink" width="128" height="128"><defs><style type="text/css"></style></defs><path d="M509.4 860.4c-7.9-5.5-8.7-15.1-1.9-21.5L900.4 479c6.9-6.3 19-7 26.9-1.5 7.9 5.5 8.7 15.1 1.9 21.5L536.3 859c-6.9 6.3-19 6.9-26.9 1.4z" fill="#dbdbdb" p-id="3503"></path><path d="M516.2 869.7c-8.1 5.4-20.1 4.5-26.9-1.9L106.2 501.3c-6.7-6.4-5.6-16.1 2.4-21.4 8.1-5.4 20.1-4.5 26.9 1.9l383.2 366.4c6.7 6.5 5.6 16.1-2.5 21.5zM508.4 598.4c-7.9-5.5-8.7-15.1-1.9-21.5L899.4 217c6.9-6.3 19-7 26.9-1.5 7.9 5.5 8.7 15.1 1.9 21.5L535.3 597c-6.9 6.3-19 6.9-26.9 1.4z" fill="#dbdbdb" p-id="3504"></path><path d="M515.2 607.7c-8.1 5.4-20.1 4.5-26.9-1.9L105.2 239.3c-6.7-6.4-5.6-16.1 2.4-21.4 8.1-5.4 20.1-4.5 26.9 1.9l383.2 366.4c6.7 6.5 5.6 16.1-2.5 21.5z" fill="#dbdbdb" p-id="3505"></path></svg>