<?xml version="1.0" standalone="no"?><!DOCTYPE svg PUBLIC "-//W3C//DTD SVG 1.1//EN" "http://www.w3.org/Graphics/SVG/1.1/DTD/svg11.dtd"><svg t="1571212039958" class="icon" viewBox="0 0 1025 1024" version="1.1" xmlns="http://www.w3.org/2000/svg" p-id="3161" xmlns:xlink="http://www.w3.org/1999/xlink" width="64.0625" height="64"><defs><style type="text/css"></style></defs><path d="M996.433 445.986h0.014l-254.227 192.377 97.936 313.007c1.533 4.884 2.369 10.069 2.369 15.494 0 27.317-21.18 49.488-47.319 49.488-10.364 0-19.936-3.497-27.725-9.423l-0.012 0.027-256.172-193.85-256.187 193.823c-7.789 5.926-17.359 9.423-27.724 9.423-26.138 0-47.319-22.171-47.319-49.488 0-5.425 0.836-10.611 2.369-15.494l97.939-313.007-254.217-192.377c-11.871-8.99-19.594-23.588-19.594-40.095 0-27.333 21.184-49.491 47.319-49.491v0h314.705l97.47-311.503c5.927-20.264 23.934-34.978 45.238-34.978s39.309 14.713 45.238 34.978l97.456 311.503h314.718c26.138 0 47.318 22.157 47.318 49.491 0 16.508-7.722 31.105-19.593 40.095z" p-id="3162" fill="#f4ea2a"></path></svg>